<svg xmlns="http://www.w3.org/2000/svg" viewBox="0 0 512 512">
  <defs>
    <linearGradient id="bg" x1="0%" y1="0%" x2="100%" y2="100%">
      <stop offset="0%" stop-color="#3b82f6"/>
      <stop offset="100%" stop-color="#8b5cf6"/>
    </linearGradient>
    <filter id="glow" x="-20%" y="-20%" width="140%" height="140%">
      <feGaussianBlur stdDeviation="8" result="blur" />
      <feComposite in="SourceGraphic" in2="blur" operator="over" />
    </filter>
  </defs>
  <rect width="512" height="512" rx="120" fill="url(#bg)"/>
  
  <!-- Controller Base -->
  <path d="M128 170 C60 170 30 220 30 300 C30 380 70 420 120 420 C140 420 160 380 180 340 L332 340 C352 380 372 420 392 420 C442 420 482 380 482 300 C482 220 452 170 384 170 Z" fill="#ffffff" filter="url(#glow)"/>
  
  <!-- D-Pad -->
  <rect x="90" y="260" width="70" height="24" rx="6" fill="#1e293b"/>
  <rect x="113" y="237" width="24" height="70" rx="6" fill="#1e293b"/>

  <!-- Action Buttons -->
  <circle cx="390" cy="250" r="16" fill="#1e293b"/>
  <circle cx="430" cy="290" r="16" fill="#1e293b"/>
  <circle cx="350" cy="290" r="16" fill="#1e293b"/>
  <circle cx="390" cy="330" r="16" fill="#1e293b"/>

  <!-- AI Sparkle Icon center -->
  <path d="M256 210 L266 250 L306 260 L266 270 L256 310 L246 270 L206 260 L246 250 Z" fill="#fbbf24"/>
  <path d="M226 210 L231 225 L246 230 L231 235 L226 250 L221 235 L206 230 L221 225 Z" fill="#f59e0b"/>
</svg>
